<svg width="16" height="16" viewBox="0 0 16 16" fill="none" xmlns="http://www.w3.org/2000/svg">
<path d="M4.50662 14.6654H11.4933C13.3333 14.6654 14.0666 13.5387 14.1533 12.1654L14.4999 6.6587C14.5933 5.2187 13.4466 3.9987 11.9999 3.9987C11.5933 3.9987 11.2199 3.76536 11.0333 3.40536L10.5533 2.4387C10.2466 1.83203 9.44662 1.33203 8.76662 1.33203H7.23995C6.55328 1.33203 5.75328 1.83203 5.44662 2.4387L4.96662 3.40536C4.77995 3.76536 4.40662 3.9987 3.99995 3.9987C2.55328 3.9987 1.40662 5.2187 1.49995 6.6587L1.84662 12.1654C1.92662 13.5387 2.66662 14.6654 4.50662 14.6654Z" stroke="white" stroke-width="1.5" stroke-linecap="round" stroke-linejoin="round"/>
<path d="M7 5.33203H9" stroke="white" stroke-width="1.5" stroke-linecap="round" stroke-linejoin="round"/>
<path d="M8.00016 12.0013C9.1935 12.0013 10.1668 11.028 10.1668 9.83464C10.1668 8.6413 9.1935 7.66797 8.00016 7.66797C6.80683 7.66797 5.8335 8.6413 5.8335 9.83464C5.8335 11.028 6.80683 12.0013 8.00016 12.0013Z" stroke="white" stroke-width="1.5" stroke-linecap="round" stroke-linejoin="round"/>
</svg>
