<svg width="24" height="24" viewBox="0 0 24 24" fill="none" xmlns="http://www.w3.org/2000/svg">
<path d="M5.33984 2.5H7.24023C8.2462 2.50004 8.93203 2.76425 9.36719 3.2002C9.80216 3.63614 10.0642 4.32242 10.0596 5.32812V7.23047C10.0595 8.23635 9.79593 8.92282 9.35938 9.35938C8.92282 9.79593 8.23635 10.0595 7.23047 10.0596H5.33008C4.32415 10.0596 3.63781 9.79584 3.20117 9.35938C2.76461 8.92282 2.50008 8.23635 2.5 7.23047V5.33008C2.5 4.32395 2.76465 3.63769 3.20215 3.20117C3.63982 2.76464 4.32841 2.50003 5.33984 2.5Z" fill="white" stroke="white"/>
<path opacity="0.4" d="M16.77 2.5H18.6704C19.6763 2.50008 20.3628 2.76461 20.7993 3.20117C21.2358 3.63781 21.4995 4.32415 21.4995 5.33008V7.23047C21.4994 8.23635 21.2359 8.92282 20.7993 9.35938C20.3628 9.79593 19.6763 10.0595 18.6704 10.0596H16.77C15.7641 10.0596 15.0778 9.79584 14.6411 9.35938C14.2046 8.92282 13.94 8.23635 13.9399 7.23047V5.33008C13.9399 4.32394 14.2045 3.6378 14.6411 3.20117C15.0777 2.76455 15.7639 2.5 16.77 2.5Z" fill="white" stroke="white"/>
<path d="M16.77 13.9297H18.6704C19.6763 13.9298 20.3628 14.1943 20.7993 14.6309C21.2358 15.0675 21.4995 15.7538 21.4995 16.7598V18.6602C21.4994 19.666 21.2359 20.3525 20.7993 20.7891C20.3628 21.2256 19.6763 21.4892 18.6704 21.4893H16.77C15.7641 21.4893 15.0778 21.2255 14.6411 20.7891C14.2046 20.3525 13.94 19.666 13.9399 18.6602V16.7598C13.9399 15.7536 14.2045 15.0675 14.6411 14.6309C15.0777 14.1942 15.7639 13.9297 16.77 13.9297Z" fill="white" stroke="white"/>
<path opacity="0.4" d="M5.33984 13.9297H7.24023C8.24639 13.9297 8.93215 14.1939 9.36719 14.6309C9.80224 15.0679 10.0642 15.7563 10.0596 16.7676V18.6699C10.0595 19.6758 9.7959 20.3622 9.35938 20.7988C8.92282 21.2354 8.23635 21.4999 7.23047 21.5H5.33008C4.32395 21.5 3.63769 21.2353 3.20117 20.7979C2.76459 20.3602 2.50008 19.6715 2.5 18.6602V16.7598C2.5 15.7536 2.76465 15.0674 3.20215 14.6309C3.63982 14.1943 4.32841 13.9297 5.33984 13.9297Z" fill="white" stroke="white"/>
</svg>
