<svg width="24" height="24" viewBox="0 0 24 24" fill="none" xmlns="http://www.w3.org/2000/svg">
<path opacity="0.4" d="M8 2.5H16C17.9229 2.5 19.2733 2.98036 20.1465 3.85352C21.0196 4.72668 21.5 6.07707 21.5 8V16C21.5 17.9229 21.0196 19.2733 20.1465 20.1465C19.2733 21.0196 17.9229 21.5 16 21.5H3C2.72614 21.5 2.5 21.2739 2.5 21V8C2.5 6.07707 2.98036 4.72668 3.85352 3.85352C4.72668 2.98036 6.07707 2.5 8 2.5Z" fill="#8E98A8" stroke="#8E98A8"/>
<path d="M14.6733 7.00391C15.1146 7.00661 15.6163 7.23303 16.1968 7.81348C16.7813 8.39798 16.9995 8.89859 16.9995 9.37012C16.9995 9.8069 16.786 10.2974 16.1968 10.8867L15.5132 11.5693C14.0616 11.111 12.9024 9.95461 12.4419 8.50391L13.1333 7.81348C13.7267 7.22013 14.2337 7.00126 14.6733 7.00391Z" fill="#8E98A8" stroke="#8E98A8"/>
<path d="M10.9487 9.99805C11.0282 10.1625 11.115 10.3215 11.1987 10.4639C11.2796 10.6051 11.377 10.7572 11.4731 10.8809V10.8818C11.5644 11.0096 11.6624 11.1359 11.7427 11.2314C11.7564 11.2523 11.7778 11.2864 11.7935 11.3086C11.805 11.3249 11.8246 11.3513 11.8491 11.3789C11.8572 11.388 11.8688 11.3979 11.8813 11.4102C12.107 11.665 12.3541 11.9121 12.5776 12.1045C12.6225 12.1521 12.6709 12.1992 12.7261 12.2363C12.8438 12.3347 12.9687 12.4294 13.0854 12.5068V12.5078C13.2292 12.6184 13.3808 12.7146 13.5278 12.7998V12.8008C13.6867 12.9036 13.8506 12.9875 14.0083 13.0645L10.7661 16.3076C10.6891 16.3846 10.5599 16.4761 10.4038 16.5547C10.2864 16.6138 10.1736 16.6552 10.0815 16.6787L9.99756 16.6963L7.92529 16.9854C7.83571 16.9966 7.80148 17.001 7.76025 17.001C7.52714 17.001 7.34213 16.9231 7.21826 16.8018C7.06576 16.6423 6.97706 16.3942 7.02393 16.0996L7.0249 16.0898L7.31396 14.0127L7.31494 14.0137C7.33 13.9115 7.3779 13.7637 7.45654 13.6074C7.53511 13.4513 7.62666 13.3221 7.70361 13.2451L10.9487 9.99805Z" fill="#8E98A8" stroke="#8E98A8"/>
</svg>
