<svg width="50" height="32" viewBox="0 0 50 32" fill="none" xmlns="http://www.w3.org/2000/svg">
<g clip-path="url(#clip0_4917_14964)">
<path fill-rule="evenodd" clip-rule="evenodd" d="M15.2498 8.56045C15.3597 9.00311 14.9352 9.54285 14.7626 9.98142C14.0159 11.8833 14.2251 13.7401 12.9398 15.0104C12.6497 15.2968 12.9202 15.1594 12.4106 15.5067C11.0275 16.4525 11.5881 15.962 10.8652 17.9046C10.2619 19.5255 10.2574 19.4035 11.2794 20.0441C11.5705 20.2266 11.3793 20.1552 11.6877 20.2615C11.5767 19.4978 12.2672 17.5433 13.0887 17.0473C14.418 16.244 15.9437 16.0577 17.7603 14.7622C18.7933 14.0259 18.0322 14.5332 18.6834 13.9428L18.7275 13.9032C17.3723 12.743 16.2173 11.4742 15.7053 9.79991C15.4827 9.07182 15.3876 8.34646 15.4148 7.64811C15.2753 7.65017 15.1282 7.64504 14.9707 7.63205C8.96665 7.13879 12.3062 3.68225 12.1532 2.35153C9.61236 5.52674 9.2423 8.08599 14.0686 8.56763C14.6048 8.62095 14.888 8.37791 15.2498 8.56045ZM29.7619 14.7697L29.808 14.7694L29.7973 14.7417L29.7619 14.7697ZM30.4265 14.2406C30.5454 14.487 30.6498 14.7085 30.7204 14.8357C30.8548 15.0774 31.2028 15.3942 31.4206 15.5624C33.1355 16.8856 36.3475 17.9836 37.5487 19.5505L38.9542 20.9879C39.8604 21.8441 41.1136 21.5543 41.26 21.4104C41.2614 21.409 41.4826 21.4066 41.2538 20.9971C41.1856 20.874 41.0133 20.7082 40.8644 20.6522C39.89 20.2895 40.1253 21.2299 38.8026 19.4062C37.8123 18.0417 35.5626 16.242 34.8142 15.3382C33.3663 13.5897 33.2041 14.0857 34.3887 12.6097C34.604 12.3417 34.7253 12.1062 34.8979 11.7726C35.308 10.9826 35.3796 10.366 35.4082 9.43894C34.9948 9.38903 34.5251 9.23213 34.05 9.02054C33.9993 9.28888 33.9318 9.56131 33.8436 9.83819C33.2227 11.791 31.7944 13.1303 30.4258 14.2399L30.4265 14.2406ZM35.4651 1.49423C36.1635 1.22487 36.0874 1.41458 36.2411 2.12353C36.4978 3.30761 36.8613 5.40745 35.7001 6.12494C35.1953 6.43668 34.4686 6.33243 33.8574 6.04153C34.02 6.50915 34.1213 7.01027 34.1516 7.53839C34.6423 7.79749 35.1987 8.00737 35.9427 8.1653C35.994 7.58488 36.6363 6.3044 37.3905 5.84191L37.6217 5.67988C38.6961 4.85984 39.8152 5.97898 41.2745 5.29533C41.8937 5.00546 42.3264 4.51289 42.5525 3.72738C42.5432 3.71131 42.5232 3.67063 42.5173 3.68328C42.5115 3.69695 42.4887 3.64841 42.4808 3.64089C42.4353 3.59748 42.417 3.58381 42.3554 3.53117C42.0749 3.29633 42.068 3.2413 41.9322 2.64208C41.1683 2.52483 39.9927 2.36144 39.5858 1.87673C39.4683 1.73692 39.3921 1.62241 39.2932 1.46107C39.0761 1.10797 38.4594 0.59762 38.0087 0.365862C37.1738 -0.0624455 36.2548 -0.0603945 35.3373 0.0971871C34.2984 0.27562 33.7543 0.457129 33.3133 1.24777C32.6417 2.45168 32.2596 3.14149 33.0587 4.41444L33.222 4.64962C34.0934 5.53256 35.627 6.38746 35.7611 4.28182C35.8231 3.31513 35.4082 2.4404 35.4648 1.49423H35.4651ZM24.1161 21.8496C24.182 20.6577 23.0931 21.6254 22.1125 20.3093L21.0926 19.0422C20.2498 17.9607 20.8021 17.3242 21.3548 16.1944L21.4244 16.0492C20.7387 15.5019 20.0344 14.9728 19.3605 14.4289C19.2929 14.5021 19.2226 14.5742 19.1496 14.6429C18.4939 15.2619 18.9425 15.2213 18.9949 16.2334C19.0586 17.4465 18.591 17.9801 19.2133 18.6248C19.57 18.9943 19.3911 18.9694 19.7074 19.235C19.8463 19.3512 19.8739 19.3498 19.9993 19.4958C20.185 19.7122 20.278 19.8981 20.4775 20.1254C20.5778 20.2403 20.6274 20.2957 20.7429 20.4122C20.9155 20.5869 20.8524 20.5271 21.0523 20.6529C21.4985 20.9332 21.2345 20.9297 21.5798 21.2292C22.2999 21.8537 23.4308 22.2403 24.1155 21.8493L24.1161 21.8496ZM29.316 21.8041C29.185 21.2866 29.2157 21.1372 28.8112 20.9783C27.5497 20.4837 27.5839 20.2105 28.458 18.8381C28.7667 18.3541 30.2212 16.0464 30.3235 15.6858L28.6648 15.6239C28.5545 15.7101 28.4442 15.7969 28.3326 15.8858L26.9902 19.1376C26.9275 19.6394 27.1073 20.8651 27.2686 21.329C27.5225 22.0585 28.3736 21.7672 29.3156 21.8038L29.316 21.8041ZM24.9024 17.7634L25.7628 16.6829C26.0691 16.3315 26.4151 16.0372 26.7379 15.7193C27.9436 14.5301 26.8234 14.9396 25.6615 13.1529C24.9931 12.125 25.1943 12.3181 25.4134 11.6495C25.8162 10.422 25.6929 9.00721 25.2718 7.86859C24.9789 7.07829 26.6801 4.77028 27.3868 4.48076C27.3347 4.65509 27.0742 4.94598 26.9154 5.23756C26.5295 5.9342 26.34 6.83594 26.6732 7.58932C27.1118 8.5813 28.3708 9.4509 29.2664 10.0388C29.5375 10.2169 29.7395 10.3506 30.0196 10.5557C31.076 11.3303 31.3668 13.211 32.4812 9.70761C33.8773 5.31481 29.4803 2.13857 26.045 3.97896C25.8076 4.10612 25.6312 4.21037 25.4455 4.35052C25.2401 4.50605 25.0768 4.67184 24.9024 4.80173C24.1037 4.15466 23.5362 3.68875 22.3223 3.51168C21.1363 3.33872 19.9776 3.64363 19.1616 4.18269C17.3286 5.39377 16.6539 7.52027 17.3127 9.67548C18.548 13.7206 19.0503 11.198 20.3538 10.3451C21.0743 9.87374 22.6459 8.8069 23.1362 8.04429C24.061 6.6052 23.3085 5.43206 22.5739 4.37958C25.8769 6.12802 26.1491 11.2404 23.5948 14.1742C23.396 14.4022 23.1755 14.567 22.9567 14.7673C22.1339 15.5234 23.0986 15.6277 24.0241 16.6627L24.9028 17.7634H24.9024ZM18.9208 12.2494C20.2219 13.5949 23.6 15.708 22.2562 11.9708C21.8999 10.9809 20.3917 10.3513 19.4683 11.4222C19.1241 11.8218 19.0128 12.1165 18.9208 12.2494ZM31.0647 12.0645C30.758 11.5367 30.3321 11.0066 29.6981 10.8797C29.0138 10.743 27.6672 11.2578 27.7179 12.6572C27.8309 15.7706 29.9982 13.2291 31.0647 12.0642V12.0645ZM28.1762 6.24492C26.7703 6.62606 27.3241 8.54131 28.6444 8.25827C29.1496 8.14991 29.5779 7.64299 29.4287 7.00514C29.3136 6.51325 28.7726 6.08324 28.1762 6.24492ZM21.3941 6.25586C19.9845 6.67186 20.6684 8.62095 21.9485 8.25041C22.4119 8.11642 22.8537 7.62077 22.6662 6.96104C22.5356 6.50163 22.0188 6.07161 21.3941 6.25552V6.25586Z" fill="white"/>
<path d="M1.14189 31.8103V27.1359H4.45764L6.77415 31.8103H8.04353L5.61607 26.9468C7.07565 26.5534 7.93258 25.4202 7.93258 23.799C7.93258 21.8 6.5364 20.541 4.23608 20.541H0V31.8103H1.14223H1.14189ZM1.14189 21.5641H4.23574C5.79042 21.5641 6.7583 22.3667 6.7583 23.8304C6.7583 25.2627 5.83797 26.1124 4.26744 26.1124H1.14189V21.5638V21.5641Z" fill="white"/>
<path d="M14.2191 24.1935V28.2383C14.2191 30.0482 13.3467 31.0242 11.8709 31.0242C10.6494 31.0242 9.84003 30.3788 9.84003 28.5688V24.1777H8.72949V28.9151C8.72949 30.7722 9.71323 32.0001 11.5218 32.0001C12.7275 32.0001 13.7905 31.4019 14.2191 30.5206L14.3618 31.8114H15.3138V24.1935H14.2191Z" fill="white"/>
<path d="M17.8404 31.8106V27.8287C17.8404 26.1131 18.7291 24.9799 20.2996 24.9799C21.569 24.9799 22.378 25.6096 22.378 27.3881V31.8106H23.4727V27.1519C23.4727 25.2318 22.6003 23.9883 20.4901 23.9883C19.3796 23.9883 18.3642 24.5393 17.8566 25.5149L17.6981 24.1927H16.7461V31.8106H17.8408H17.8404Z" fill="white"/>
<path d="M25.9039 31.8106V27.8287C25.9039 26.1131 26.7925 24.9799 28.3631 24.9799C29.6325 24.9799 30.4415 25.6096 30.4415 27.3881V31.8106H31.5362V27.1519C31.5362 25.2318 30.6637 23.9883 28.5536 23.9883C27.4431 23.9883 26.4277 24.5393 25.9201 25.5149L25.7616 24.1927H24.8096V31.8106H25.9043H25.9039Z" fill="white"/>
<path d="M44.3156 24.0982C44.0458 24.0353 43.8398 24.0195 43.6017 24.0195C42.5228 24.0195 41.7138 24.5548 41.4123 25.3732L41.333 24.1928H40.3018V31.8108H41.3964V27.4668C41.3964 26.0189 42.3009 25.0744 43.713 25.0744H44.3159V24.0985L44.3156 24.0982Z" fill="white"/>
<path d="M44.2725 29.6701C44.2725 31.0866 45.3513 31.9996 47.0807 31.9996C48.8259 31.9996 49.9998 31.1024 49.9998 29.7333C49.9998 28.6316 49.3968 28.0177 48.0644 27.6872L46.7475 27.3566C45.9067 27.1519 45.4939 26.7427 45.4939 26.1606C45.4939 25.3423 46.0969 24.8856 47.1758 24.8856C48.2071 24.8856 48.8259 25.4048 48.8576 26.2864H49.9206C49.873 24.8698 48.8259 23.9883 47.2075 23.9883C45.5573 23.9883 44.431 24.8381 44.431 26.176C44.431 27.2148 45.0815 27.9073 46.4143 28.2379L47.7312 28.5684C48.6357 28.7889 48.9527 29.1509 48.9527 29.7802C48.9527 30.5985 48.2546 31.1024 47.0648 31.1024C45.986 31.1024 45.3196 30.5513 45.3196 29.6701H44.2725Z" fill="white"/>
<path d="M35.0784 31.9993C36.3795 31.9993 37.4266 31.4326 37.9024 30.4727L38.0451 31.8106H38.9654V26.8842C38.9654 24.8695 37.6643 23.9883 35.8874 23.9883C33.9995 23.9883 32.7302 24.9799 32.7302 26.5222H33.7297C33.7297 25.4992 34.5229 24.901 35.8557 24.901C36.9821 24.901 37.8866 25.373 37.8866 26.8685V27.1204L35.3482 27.3252C33.5554 27.4667 32.4766 28.3483 32.4766 29.7491C32.4766 31.087 33.4444 31.9996 35.0784 31.9996V31.9993ZM35.3323 31.1177C34.2852 31.1177 33.5871 30.6457 33.5871 29.7169C33.5871 28.8672 34.1742 28.2375 35.618 28.1114L37.8866 27.9384V28.3476C37.8866 30.0003 36.9504 31.1177 35.3323 31.1177Z" fill="white"/>
</g>
<defs>
<clipPath id="clip0_4917_14964">
<rect width="50" height="32" fill="white"/>
</clipPath>
</defs>
</svg>
