<svg width="40" height="40" viewBox="0 0 40 40" fill="none" xmlns="http://www.w3.org/2000/svg">
<mask id="path-1-inside-1_230_16731" fill="white">
<path d="M0 20C0 8.95431 8.95431 0 20 0C31.0457 0 40 8.95431 40 20C40 31.0457 31.0457 40 20 40C8.95431 40 0 31.0457 0 20Z"/>
</mask>
<path d="M20 40V38C10.0589 38 2 29.9411 2 20H0H-2C-2 32.1503 7.84974 42 20 42V40ZM40 20H38C38 29.9411 29.9411 38 20 38V40V42C32.1503 42 42 32.1503 42 20H40ZM20 0V2C29.9411 2 38 10.0589 38 20H40H42C42 7.84974 32.1503 -2 20 -2V0ZM20 0V-2C7.84974 -2 -2 7.84974 -2 20H0H2C2 10.0589 10.0589 2 20 2V0Z" fill="#E1E1E1" mask="url(#path-1-inside-1_230_16731)"/>
<path d="M20 15.3672V18.1422" stroke="#0B0A0A" stroke-width="1.5" stroke-miterlimit="10" stroke-linecap="round"/>
<path d="M20.0166 11.666C16.9499 11.666 14.4666 14.1493 14.4666 17.216V18.966C14.4666 19.5327 14.2332 20.3827 13.9416 20.866L12.8832 22.6327C12.2332 23.7243 12.6832 24.941 13.8832 25.341C17.8666 26.666 22.1749 26.666 26.1582 25.341C27.2832 24.966 27.7666 23.6493 27.1582 22.6327L26.0999 20.866C25.8082 20.3827 25.5749 19.5243 25.5749 18.966V17.216C25.5666 14.166 23.0666 11.666 20.0166 11.666Z" stroke="#0B0A0A" stroke-width="1.5" stroke-miterlimit="10" stroke-linecap="round"/>
<path d="M22.7751 25.6836C22.7751 27.2086 21.5251 28.4586 20.0001 28.4586C19.2418 28.4586 18.5418 28.1419 18.0418 27.6419C17.5418 27.1419 17.2251 26.4419 17.2251 25.6836" stroke="#0B0A0A" stroke-width="1.5" stroke-miterlimit="10"/>
</svg>
