<svg width="24" height="24" viewBox="0 0 24 24" fill="none" xmlns="http://www.w3.org/2000/svg">
<path opacity="0.4" d="M17.4297 2.5C18.6626 2.5 19.6848 3.4382 19.8076 4.64551L19.8203 4.88965C19.8106 6.1796 18.7963 7.22393 17.5225 7.26953C17.4569 7.26434 17.3917 7.26426 17.3262 7.26953C16.0516 7.22314 15.04 6.17737 15.04 4.88965C15.0402 3.57494 16.1072 2.50019 17.4297 2.5Z" fill="white" stroke="white"/>
<path opacity="0.4" d="M17.3344 10.5107C18.5029 10.4748 19.6557 10.7548 20.5033 11.3174L20.5052 11.3184C21.1906 11.7696 21.4653 12.3158 21.4662 12.7979C21.4669 13.2804 21.1937 13.8293 20.5121 14.2852C19.6719 14.8477 18.5182 15.125 17.3656 15.0938C17.6057 14.3877 17.7315 13.635 17.7396 12.8555V12.8506C17.7396 12.0329 17.6021 11.2414 17.3344 10.5107Z" fill="white" stroke="white"/>
<path opacity="0.4" d="M6.53967 2.5C7.86229 2.5 8.93011 3.57482 8.9303 4.88965C8.9303 6.17794 7.91761 7.224 6.64221 7.26953C6.57698 7.26438 6.51213 7.26433 6.4469 7.26953C5.17343 7.22357 4.15978 6.17937 4.15002 4.88965C4.15021 3.5672 5.22496 2.50019 6.53967 2.5Z" fill="white" stroke="white"/>
<path opacity="0.4" d="M6.44617 10.5078C6.18597 11.2388 6.04968 12.0281 6.04968 12.8506C6.04968 13.6387 6.17912 14.397 6.41882 15.1064C5.32742 15.1052 4.2607 14.8216 3.45691 14.2939C2.77014 13.8375 2.49502 13.2889 2.495 12.8057C2.495 12.3224 2.77014 11.7738 3.45691 11.3174L3.45886 11.3154C4.24904 10.7837 5.33845 10.5022 6.44617 10.5078Z" fill="white" stroke="white"/>
<path d="M11.9905 9.5C13.6141 9.50023 14.9299 10.8167 14.9299 12.4404C14.9297 14.0296 13.6858 15.315 12.1096 15.3691C12.0294 15.3632 11.9479 15.3631 11.8674 15.3691C10.3016 15.3134 9.05027 14.0276 9.05005 12.4404C9.05005 10.8156 10.3576 9.5 11.9905 9.5Z" fill="white" stroke="white"/>
<path d="M12.0071 17.5781C13.0661 17.5781 14.0959 17.8478 14.8508 18.3555L14.8538 18.3574C15.5025 18.787 15.7628 19.3099 15.7629 19.7715C15.7629 20.2337 15.5021 20.7604 14.8518 21.1953C14.0913 21.7036 13.059 21.9726 12.0002 21.9727C10.9413 21.9727 9.90827 21.7038 9.14771 21.1953L9.14575 21.1934C8.49715 20.7637 8.23755 20.2409 8.23755 19.7793C8.23758 19.3174 8.49758 18.7921 9.14673 18.3574C9.91278 17.8482 10.9484 17.5782 12.0071 17.5781Z" fill="white" stroke="white"/>
</svg>
