<svg width="24" height="24" viewBox="0 0 24 24" fill="none" xmlns="http://www.w3.org/2000/svg">
<path opacity="0.4" d="M17.4297 2.5C18.6626 2.5 19.6848 3.4382 19.8076 4.64551L19.8203 4.88965C19.8106 6.1796 18.7963 7.22393 17.5225 7.26953C17.4569 7.26434 17.3917 7.26426 17.3262 7.26953C16.0516 7.22314 15.04 6.17737 15.04 4.88965C15.0402 3.57494 16.1072 2.50019 17.4297 2.5Z" fill="#8E98A8" stroke="#8E98A8"/>
<path opacity="0.4" d="M17.3345 10.5107C18.503 10.4748 19.6558 10.7548 20.5034 11.3174L20.5054 11.3184C21.1907 11.7696 21.4654 12.3158 21.4663 12.7979C21.4671 13.2804 21.1938 13.8293 20.5122 14.2852C19.6721 14.8477 18.5183 15.125 17.3657 15.0938C17.6058 14.3877 17.7316 13.635 17.7397 12.8555V12.8506C17.7397 12.0329 17.6023 11.2414 17.3345 10.5107Z" fill="#8E98A8" stroke="#8E98A8"/>
<path opacity="0.4" d="M6.53955 2.5C7.86216 2.5 8.92999 3.57482 8.93018 4.88965C8.93018 6.17794 7.91749 7.224 6.64209 7.26953C6.57686 7.26438 6.51201 7.26433 6.44678 7.26953C5.17331 7.22357 4.15965 6.17937 4.1499 4.88965C4.15009 3.5672 5.22484 2.50019 6.53955 2.5Z" fill="#8E98A8" stroke="#8E98A8"/>
<path opacity="0.4" d="M6.44629 10.5078C6.18609 11.2388 6.04981 12.0281 6.0498 12.8506C6.0498 13.6387 6.17924 14.397 6.41895 15.1064C5.32754 15.1052 4.26082 14.8216 3.45703 14.2939C2.77026 13.8375 2.49515 13.2889 2.49512 12.8057C2.49512 12.3224 2.77026 11.7738 3.45703 11.3174L3.45898 11.3154C4.24917 10.7837 5.33857 10.5022 6.44629 10.5078Z" fill="#8E98A8" stroke="#8E98A8"/>
<path d="M11.9905 9.5C13.6141 9.50023 14.9299 10.8167 14.9299 12.4404C14.9297 14.0296 13.6858 15.315 12.1096 15.3691C12.0294 15.3632 11.9479 15.3631 11.8674 15.3691C10.3016 15.3134 9.05027 14.0276 9.05005 12.4404C9.05005 10.8156 10.3576 9.5 11.9905 9.5Z" fill="#8E98A8" stroke="#8E98A8"/>
<path d="M12.0071 17.5781C13.0661 17.5781 14.0959 17.8478 14.8508 18.3555L14.8538 18.3574C15.5025 18.787 15.7628 19.3099 15.7629 19.7715C15.7629 20.2337 15.5021 20.7604 14.8518 21.1953C14.0913 21.7036 13.059 21.9726 12.0002 21.9727C10.9413 21.9727 9.90827 21.7038 9.14771 21.1953L9.14575 21.1934C8.49715 20.7637 8.23755 20.2409 8.23755 19.7793C8.23758 19.3174 8.49758 18.7921 9.14673 18.3574C9.91278 17.8482 10.9484 17.5782 12.0071 17.5781Z" fill="#8E98A8" stroke="#8E98A8"/>
</svg>
