<svg width="24" height="24" viewBox="0 0 24 24" fill="none" xmlns="http://www.w3.org/2000/svg">
<path opacity="0.4" d="M14.1895 3.64551C14.524 3.08324 15.2411 2.89589 15.7842 3.21875L15.792 3.22363L17.5215 4.21387C18.148 4.57186 18.3888 5.35212 18.1016 5.99316L18.0371 6.11914C17.529 6.99609 17.4192 7.90791 17.8369 8.63281C18.2547 9.35774 19.0988 9.71973 20.1104 9.71973C20.8757 9.71992 21.5096 10.3473 21.5098 11.1191V12.8799C21.5095 13.6451 20.8822 14.2791 20.1104 14.2793C19.0988 14.2793 18.2547 14.6413 17.8369 15.3662C17.4192 16.0911 17.5289 17.0029 18.0371 17.8799C18.4197 18.5524 18.1884 19.4041 17.5215 19.7852L15.792 20.7754L15.7842 20.7793C15.2411 21.1024 14.524 20.9159 14.1895 20.3535L14.083 20.1689C13.5797 19.2919 12.8456 18.7422 12.0088 18.7422C11.1722 18.7422 10.436 19.2921 9.92773 20.1689L9.82031 20.3535C9.48574 20.9159 8.76869 21.1024 8.22559 20.7793L8.21875 20.7754L6.48828 19.7852L6.36816 19.708C5.83212 19.3237 5.64024 18.6041 5.9082 18.0059L5.97266 17.8799C6.48091 17.0029 6.59062 16.0912 6.17285 15.3662C5.75513 14.6414 4.91173 14.2794 3.90039 14.2793C3.12839 14.2793 2.50024 13.6453 2.5 12.8799V11.1191C2.50017 10.3537 3.12835 9.71973 3.90039 9.71973C4.91168 9.71963 5.75511 9.35758 6.17285 8.63281C6.56457 7.95306 6.49299 7.1088 6.06348 6.2832L5.97266 6.11914C5.61467 5.49925 5.7939 4.7028 6.36816 4.29102L6.48828 4.21387L8.21875 3.22363L8.22559 3.21875C8.73465 2.91598 9.39648 3.06146 9.75293 3.54395L9.82031 3.64551L9.92578 3.82715V3.82812C10.4291 4.70606 11.1638 5.25672 12.001 5.25684C12.7853 5.25684 13.4816 4.77329 13.9844 3.99023L14.083 3.83008L14.1895 3.64551Z" fill="#8E98A8" stroke="#8E98A8"/>
<path d="M12 9.25C13.5188 9.25 14.75 10.4812 14.75 12C14.75 13.5188 13.5188 14.75 12 14.75C10.4812 14.75 9.25 13.5188 9.25 12C9.25 10.4812 10.4812 9.25 12 9.25Z" fill="#8E98A8" stroke="#8E98A8"/>
</svg>
