<svg width="24" height="24" viewBox="0 0 24 24" fill="none" xmlns="http://www.w3.org/2000/svg">
<path d="M6 13.5C8.49321 13.5 10.5 15.5155 10.5 18C10.5 20.4839 8.48386 22.5 6 22.5C3.51549 22.5 1.5 20.4932 1.5 18C1.5 15.5068 3.51549 13.5 6 13.5ZM3.9502 18.1797C3.30407 18.1797 2.76953 18.7142 2.76953 19.3604C2.76972 20.0016 3.28943 20.54 3.9502 20.54H8.04004C8.70082 20.54 9.21954 20.0015 9.21973 19.3604C9.21973 18.719 8.70096 18.1797 8.04004 18.1797H3.9502ZM3.95996 15.46C3.29918 15.46 2.78046 15.9985 2.78027 16.6396C2.78027 17.281 3.29904 17.8203 3.95996 17.8203H6C6.64616 17.8203 7.17969 17.2858 7.17969 16.6396C7.1795 15.9985 6.6608 15.46 6 15.46H3.95996Z" fill="white" stroke="white"/>
<path opacity="0.4" d="M7 3.5H17C18.4232 3.5 19.5326 3.85587 20.2842 4.55469C21.0292 5.24751 21.5 6.34979 21.5 8.00977V15.0098C21.5 16.6643 21.03 17.7643 20.2852 18.4561C19.5335 19.154 18.4234 19.5098 17 19.5098H13.4297C13.1275 19.5096 12.9001 19.2429 12.9355 18.9697C13.0436 18.2023 13.0208 17.4056 12.8604 16.5928V16.5898L12.8018 16.3291C12.1448 13.6504 9.89865 11.546 7.16113 11.0967H7.15918C5.75438 10.8715 4.40815 11.0637 3.22168 11.5811C2.85789 11.7385 2.5 11.4842 2.5 11.1396V8C2.5 6.34538 2.96994 5.24547 3.71484 4.55371C4.46652 3.85572 5.57665 3.5 7 3.5Z" fill="white" stroke="white"/>
<path d="M16.845 7.79785C16.9525 7.71046 17.1081 7.73462 17.1819 7.83203L17.1917 7.8457C17.2789 7.95321 17.2557 8.10783 17.1584 8.18164L17.1477 8.18945L14.0178 10.6895L14.011 10.6953C13.4749 11.1391 12.7434 11.3701 12.0002 11.3701C11.2578 11.3701 10.5239 11.1392 9.97583 10.6924L9.97192 10.6895L6.84204 8.18945C6.72859 8.09457 6.72188 7.93981 6.7981 7.8457C6.8928 7.72914 7.04983 7.72076 7.14478 7.79785L7.14771 7.80078L10.2776 10.3008C10.7622 10.6894 11.3916 10.8672 11.9954 10.8672C12.5989 10.8671 13.2277 10.6892 13.7122 10.3008L16.842 7.80078L16.845 7.79785Z" fill="white" stroke="white"/>
</svg>
