<svg width="24" height="24" viewBox="0 0 24 24" fill="none" xmlns="http://www.w3.org/2000/svg">
<path opacity="0.4" d="M7.80957 2.5H16.1904C17.9108 2.50008 19.2233 3.01135 20.1045 3.89355C20.9856 4.77581 21.495 6.08836 21.4902 7.80859V16.1904C21.4901 17.9107 20.9792 19.2239 20.0967 20.1064C19.2141 20.9891 17.9003 21.5 16.1797 21.5H7.80957C6.08923 21.4999 4.77604 20.9891 3.89355 20.1055C3.01097 19.2217 2.5 17.9056 2.5 16.1797V7.80957C2.50009 6.08922 3.011 4.77611 3.89355 3.89355C4.77611 3.011 6.08922 2.50009 7.80957 2.5Z" fill="white" stroke="white"/>
<path d="M6.88 15.8301C7.01386 15.8301 7.13 15.9462 7.13 16.0801V18.1504C7.12984 18.2898 7.01811 18.4004 6.88 18.4004C6.74625 18.4004 6.63019 18.2841 6.63 18.1504V16.0801C6.63 15.9462 6.74615 15.8301 6.88 15.8301Z" fill="white" stroke="white"/>
<path d="M12 13.75C12.1339 13.75 12.25 13.8661 12.25 14V18.1504C12.2498 18.2897 12.1381 18.4004 12 18.4004C11.8663 18.4004 11.7502 18.2841 11.75 18.1504V14C11.75 13.8661 11.8661 13.75 12 13.75Z" fill="white" stroke="white"/>
<path d="M17.12 11.6797C17.2539 11.6797 17.37 11.7958 17.37 11.9297V18.1494C17.37 18.2933 17.2639 18.3994 17.12 18.3994C16.9861 18.3994 16.87 18.2833 16.87 18.1494V11.9297C16.87 11.7958 16.9861 11.6797 17.12 11.6797Z" fill="white" stroke="white"/>
<path d="M14.2002 5.59961H17.0996L17.1191 5.60449L17.1299 5.60742L17.1416 5.61035C17.1688 5.61579 17.1932 5.61893 17.209 5.62109C17.2119 5.6215 17.2156 5.62165 17.2188 5.62207C17.2228 5.62465 17.2264 5.62757 17.2295 5.62988L17.2529 5.64551C17.2729 5.65879 17.2931 5.66864 17.3096 5.67773C17.3128 5.68224 17.3176 5.68887 17.3223 5.69531L17.3398 5.71973L17.3408 5.7207C17.3449 5.73874 17.3494 5.75997 17.3545 5.78027C17.3577 5.79494 17.361 5.80801 17.3633 5.81738C17.3665 5.83061 17.3685 5.83802 17.3701 5.84473V8.7793C17.3701 8.91311 17.2539 9.02922 17.1201 9.0293C16.9863 9.0293 16.8701 8.91315 16.8701 8.7793V6.5791L16.0117 7.46094C13.5309 10.0099 10.4301 11.8095 6.95996 12.6787C6.90685 12.6874 6.89037 12.6895 6.87988 12.6895C6.78982 12.6894 6.71161 12.6435 6.66797 12.5771L6.63672 12.5049L6.63477 12.498C6.60299 12.3701 6.68523 12.2283 6.82129 12.1943H6.82227C10.2842 11.3211 13.3677 9.51246 15.8125 6.94434L16.6162 6.09961H14.2002C14.0663 6.09961 13.9502 5.98347 13.9502 5.84961C13.9502 5.71575 14.0663 5.59961 14.2002 5.59961ZM17.2568 5.61816C17.2531 5.61405 17.2493 5.61028 17.2461 5.60645L17.2471 5.60547C17.2503 5.6095 17.2532 5.61391 17.2568 5.61816Z" fill="white" stroke="white"/>
</svg>
