<svg width="24" height="24" viewBox="0 0 24 24" fill="none" xmlns="http://www.w3.org/2000/svg">
<path d="M10.9304 18.1191H19.9998C20.1736 18.1191 20.3201 18.2656 20.3201 18.4395C20.3199 18.6192 20.1775 18.7588 19.9998 18.7588H10.9304C10.7567 18.7588 10.6103 18.6132 10.6101 18.4395C10.6101 18.2656 10.7566 18.1191 10.9304 18.1191Z" fill="#8E98A8" stroke="#8E98A8"/>
<path d="M10.9304 11.8301H19.9998C20.1736 11.8301 20.3201 11.9765 20.3201 12.1504C20.3199 12.3241 20.1735 12.4697 19.9998 12.4697H10.9304C10.7567 12.4697 10.6103 12.3241 10.6101 12.1504C10.6101 11.9765 10.7566 11.8301 10.9304 11.8301Z" fill="#8E98A8" stroke="#8E98A8"/>
<path d="M10.9304 5.5293H19.9998C20.1736 5.5293 20.3201 5.67575 20.3201 5.84961C20.3199 6.02333 20.1735 6.16895 19.9998 6.16895H10.9304C10.7567 6.16895 10.6103 6.02333 10.6101 5.84961C10.6101 5.67575 10.7566 5.5293 10.9304 5.5293Z" fill="#8E98A8" stroke="#8E98A8"/>
<path opacity="0.4" d="M7.40356 4.26367C7.5283 4.13893 7.73195 4.13893 7.85669 4.26367C7.98117 4.38843 7.98134 4.59214 7.85669 4.7168L5.14771 7.4248C5.0678 7.49972 4.98678 7.53015 4.9104 7.53027C4.82528 7.53027 4.74159 7.49414 4.68384 7.43652L3.77368 6.52637C3.64894 6.40163 3.64894 6.19798 3.77368 6.07324C3.89844 5.94872 4.10214 5.94858 4.22681 6.07324L4.55591 6.40332L4.9104 6.75684L7.40356 4.26367Z" fill="#8E98A8" stroke="#8E98A8"/>
<path opacity="0.4" d="M7.40356 10.5645C7.5283 10.4397 7.73195 10.4397 7.85669 10.5645C7.98117 10.6892 7.98134 10.8929 7.85669 11.0176L5.13599 13.7373C5.07387 13.7993 4.99321 13.8309 4.9104 13.8311C4.82741 13.8311 4.74608 13.7994 4.68384 13.7373L3.77368 12.8271C3.64894 12.7024 3.64894 12.4988 3.77368 12.374C3.89844 12.2495 4.10214 12.2494 4.22681 12.374L4.55591 12.7041L4.9104 13.0576L7.40356 10.5645Z" fill="#8E98A8" stroke="#8E98A8"/>
<path opacity="0.4" d="M7.40356 16.5645C7.5283 16.4397 7.73195 16.4397 7.85669 16.5645C7.98117 16.6892 7.98134 16.8929 7.85669 17.0176L5.13599 19.7373C5.07387 19.7993 4.99321 19.8309 4.9104 19.8311C4.82741 19.8311 4.74608 19.7994 4.68384 19.7373L3.77368 18.8271C3.64894 18.7024 3.64894 18.4988 3.77368 18.374C3.89844 18.2495 4.10214 18.2494 4.22681 18.374L4.55591 18.7041L4.9104 19.0576L7.40356 16.5645Z" fill="#1D1D1D" stroke="#1D1D1D"/>
</svg>
