<svg width="24" height="24" viewBox="0 0 24 24" fill="none" xmlns="http://www.w3.org/2000/svg">
<path opacity="0.4" d="M7.80957 2.5H16.1904C17.9108 2.50008 19.2239 3.011 20.1064 3.89355C20.989 4.77611 21.4999 6.08922 21.5 7.80957V16.1904C21.4999 17.5195 21.1952 18.6038 20.6533 19.4307C20.1141 20.2534 19.3208 20.8511 18.2871 21.1836L18.2754 21.1875C17.68 21.395 16.978 21.5 16.1904 21.5H7.80957C7.02201 21.5 6.32002 21.395 5.72461 21.1875L5.71289 21.1836C4.67922 20.8511 3.88593 20.2534 3.34668 19.4307C2.80481 18.6038 2.50007 17.5195 2.5 16.1904V7.80957C2.50008 6.08922 3.011 4.77611 3.89355 3.89355C4.77611 3.011 6.08922 2.50008 7.80957 2.5Z" fill="#8E98A8" stroke="#8E98A8"/>
<path d="M12.0005 17.4707C14.9691 17.4709 17.3342 19.1803 17.8647 21.3096C17.3649 21.4357 16.8035 21.501 16.1899 21.501H7.81006C7.19606 21.501 6.63433 21.4359 6.13428 21.3096C6.66474 19.18 9.03153 17.4707 12.0005 17.4707Z" fill="#8E98A8" stroke="#8E98A8"/>
<path d="M12 8.5C13.7038 8.50004 15.0801 9.87624 15.0801 11.5801C15.08 13.2857 13.702 14.6699 12 14.6699C10.298 14.6699 8.91995 13.2857 8.91992 11.5801C8.91992 9.87622 10.2961 8.5 12 8.5Z" fill="#8E98A8" stroke="#8E98A8"/>
</svg>
